<svg xmlns="http://www.w3.org/2000/svg" version="1.1" xmlns:xlink="http://www.w3.org/1999/xlink" xmlns:svgjs="http://svgjs.dev/svgjs" width="1000" height="623" viewBox="0 0 1000 623"><g transform="matrix(1,0,0,1,-0.6060606060606233,0.2522267206477409)"><svg viewBox="0 0 396 247" data-background-color="#ffffff" preserveAspectRatio="xMidYMid meet" height="623" width="1000" xmlns="http://www.w3.org/2000/svg" xmlns:xlink="http://www.w3.org/1999/xlink"><g id="tight-bounds" transform="matrix(1,0,0,1,0.2400000000000091,-0.09999999999999432)"><svg viewBox="0 0 395.52 247.2" height="247.2" width="395.52"><g><svg></svg></g><g><svg viewBox="0 0 395.52 247.2" height="247.2" width="395.52"><g transform="matrix(1,0,0,1,39.55199999999999,100.93384906177235)"><svg viewBox="0 0 316.416 45.332301876455276" height="45.332301876455276" width="316.416"><g><svg viewBox="0 0 316.416 45.332301876455276" height="45.332301876455276" width="316.416"><g><svg viewBox="0 0 316.416 45.332301876455276" height="45.332301876455276" width="316.416"><g><svg viewBox="0 0 316.416 45.332301876455276" height="45.332301876455276" width="316.416"><g id="textblocktransform"><svg viewBox="0 0 316.416 45.332301876455276" height="45.332301876455276" width="316.416" id="textblock"><g><svg viewBox="0 0 316.416 45.332301876455276" height="45.332301876455276" width="316.416"><g transform="matrix(1,0,0,1,0,0)"><svg width="316.416" viewBox="-10.9 -38.9 366.02 53.3" height="45.332301876455276" data-palette-color="#e6b17e"><path d="M0.6 5L0.6 5Q2.4 5 3.15 4.08 3.9 3.15 3.9 0.45L3.9 0.45 3.9-28.65Q1.85-29.4 1.15-30.35L1.15-30.35 1.65-34.5 13.35-34.5 13.85-30.35Q13.05-29.4 11.1-28.65L11.1-28.65 11.05 0Q11.05 5.75 8.83 8.08 6.6 10.4 1.63 10.4-3.35 10.4-6.9 7.8L-6.9 7.8Q-6.9 7.5-6.9 6.73-6.9 5.95-6.58 4.17-6.25 2.4-5.65 1.2L-5.65 1.2-1.15 1.2Q-0.45 2.3-0.15 4.95L-0.15 4.95Q0.1 5 0.6 5ZM27.25-34.75L34.1-34.75 44.05-5.9Q46.15-5.15 47-4.15L47-4.15 46.5 0 34.8 0 34.3-4.15Q34.9-4.95 36.7-5.65L36.7-5.65 35.35-9.85 25.35-9.85 24.1-5.8Q25.85-5.1 26.7-4.15L26.7-4.15 26.2 0 14.8 0 14.3-4.15Q15.2-5.3 17.65-6.05L17.65-6.05 27.25-34.75ZM30.65-27.75L29.95-27.75Q29.95-24.7 28.7-20.65L28.7-20.65 26.75-14.45 33.9-14.45 32-20.55Q30.85-24.05 30.7-26.9L30.7-26.9 30.65-27.75ZM80.9-5.85L80.9-18.85Q80.9-20.85 81.25-25.05L81.25-25.05 81.34-26.25 80.84-26.3Q79.69-22.05 78.84-19.55L78.84-19.55 72.19 0 65.55 0 58.55-19.55Q57.59-21.8 56.84-25.15L56.84-25.15 56.55-26.3 56.05-26.25Q56.49-21.8 56.49-18.85L56.49-18.85 56.49-5.7Q58.34-5 59.24-3.85L59.24-3.85 58.74 0 48.95 0 48.45-3.85Q49.34-5 51.2-5.7L51.2-5.7 51.2-28.8Q49.14-29.55 48.34-30.65L48.34-30.65 48.84-34.5 60.24-34.5 67.55-14.35Q68.94-11.05 69.34-8.3L69.34-8.3 69.5-7.45 70.19-7.45Q70.39-10.5 72-14.35L72-14.35 78.94-34.5 90.15-34.5 90.65-30.65Q89.84-29.55 87.8-28.8L87.8-28.8 87.8-5.9Q89.75-5.15 90.55-4.15L90.55-4.15 90.05 0 78.64 0 78.14-4.1Q78.94-5.1 80.9-5.85L80.9-5.85ZM117.49-8.7L117.49 0 94.29 0 93.79-4.15Q94.44-5 96.54-5.8L96.54-5.8 96.54-28.65Q94.49-29.4 93.79-30.35L93.79-30.35 94.29-34.5 117.09-34.5 117.09-25.8 113.39-25.35Q112.24-26.35 111.54-29.05L111.54-29.05 103.74-29.05 103.74-20.45 110.69-20.45Q111.29-21.95 111.94-22.55L111.94-22.55 115.09-22.2 115.09-13.3 111.94-12.9Q111.29-13.4 110.69-15L110.69-15 103.74-15 103.74-5.45 111.94-5.45Q112.59-8.05 113.79-9.15L113.79-9.15 117.49-8.7ZM136.14-29.05L136.14-29.05Q134.44-29.5 132.59-29.5 130.74-29.5 129.62-28.58 128.49-27.65 128.49-25.98 128.49-24.3 129.34-23.35 130.19-22.4 132.69-21.7L132.69-21.7 137.14-20.4Q140.74-19.35 142.87-17.13 144.99-14.9 144.99-10.6L144.99-10.6Q144.99-5.5 141.31-2.55 137.64 0.4 132.19 0.4L132.19 0.4Q129.19 0.4 126.02-0.38 122.84-1.15 120.74-2.55L120.74-2.55Q120.74-2.85 120.74-3.7 120.74-4.55 121.09-6.6 121.44-8.65 122.09-9.95L122.09-9.95 126.84-9.95Q127.64-8.4 127.79-5.8L127.79-5.8Q129.54-5.05 131.87-5.05 134.19-5.05 135.69-6.15 137.19-7.25 137.19-9.3L137.19-9.3Q137.19-10.25 137.04-10.88 136.89-11.5 136.12-12.23 135.34-12.95 133.89-13.4L133.89-13.4 128.74-14.9Q120.89-17.15 120.89-24.9L120.89-24.9Q120.89-29.45 124.19-32.18 127.49-34.9 132.81-34.9 138.14-34.9 143.24-32.5L143.24-32.5Q143.24-32.2 143.24-31.35 143.24-30.5 142.89-28.45 142.54-26.4 141.89-25.1L141.89-25.1 137.14-25.1Q136.29-26.3 136.14-29.05ZM178.38-4.15L177.88 0 166.19 0 165.69-4.15Q166.34-5 168.44-5.8L168.44-5.8 168.44-11.55 160.28-28.5Q157.94-29.3 157.09-30.35L157.09-30.35 157.53-34.25 157.53-34.3 157.59-34.5 169.28-34.5 169.78-30.35Q169.19-29.5 167.48-28.85L167.48-28.85 169.19-25Q170.63-21.7 171.69-18.45L171.69-18.45 172.03-17.45 172.78-17.45Q173.84-21.1 175.53-25L175.53-25 177.13-28.65Q175.13-29.45 174.44-30.35L174.44-30.35 174.94-34.5 186.34-34.5 186.84-30.35Q185.84-29.2 183.53-28.45L183.53-28.45 175.63-11.55 175.63-5.8Q177.63-5 178.38-4.15L178.38-4.15ZM195.93-34.75L202.78-34.75 212.73-5.9Q214.83-5.15 215.68-4.15L215.68-4.15 215.18 0 203.48 0 202.98-4.15Q203.58-4.95 205.38-5.65L205.38-5.65 204.03-9.85 194.03-9.85 192.78-5.8Q194.53-5.1 195.38-4.15L195.38-4.15 194.88 0 183.48 0 182.98-4.15Q183.88-5.3 186.33-6.05L186.33-6.05 195.93-34.75ZM199.33-27.75L198.63-27.75Q198.63-24.7 197.38-20.65L197.38-20.65 195.43-14.45 202.58-14.45 200.68-20.55Q199.53-24.05 199.38-26.9L199.38-26.9 199.33-27.75ZM225.18-18.85L225.18-18.85 225.18-5.7Q227.03-5 227.93-3.85L227.93-3.85 227.43 0 217.63 0 217.13-3.85Q218.03-5 219.88-5.7L219.88-5.7 219.88-28.8Q217.83-29.55 217.03-30.65L217.03-30.65 217.53-34.5 227.83-34.5 237.78-15.1Q238.88-13 239.93-9.5L239.93-9.5 240.28-8.3 240.83-8.5Q240.13-12.85 240.13-15.8L240.13-15.8 240.13-28.75Q238.33-29.45 237.38-30.65L237.38-30.65 237.88-34.5 247.68-34.5 248.18-30.65Q247.23-29.45 245.43-28.75L245.43-28.75 245.43 0 237.58 0 227.53-19.55Q226.43-21.65 225.38-25.2L225.38-25.2 225.03-26.35 224.48-26.15Q225.18-21.8 225.18-18.85ZM285.57-8.7L285.57 0 262.68 0 262.18-4.15Q262.82-5 264.93-5.8L264.93-5.8 264.93-28.65Q262.88-29.4 262.18-30.35L262.18-30.35 262.68-34.5 274.38-34.5 274.88-30.35Q274.07-29.4 272.13-28.65L272.13-28.65 272.13-5.45 280.02-5.45Q280.68-8.05 281.88-9.15L281.88-9.15 285.57-8.7ZM298.87-34.75L305.72-34.75 315.67-5.9Q317.77-5.15 318.62-4.15L318.62-4.15 318.12 0 306.42 0 305.92-4.15Q306.52-4.95 308.32-5.65L308.32-5.65 306.97-9.85 296.97-9.85 295.72-5.8Q297.47-5.1 298.32-4.15L298.32-4.15 297.82 0 286.42 0 285.92-4.15Q286.82-5.3 289.27-6.05L289.27-6.05 298.87-34.75ZM302.27-27.75L301.57-27.75Q301.57-24.7 300.32-20.65L300.32-20.65 298.37-14.45 305.52-14.45 303.62-20.55Q302.47-24.05 302.32-26.9L302.32-26.9 302.27-27.75ZM328.12-18.85L328.12-18.85 328.12-5.7Q329.97-5 330.87-3.85L330.87-3.85 330.37 0 320.57 0 320.07-3.85Q320.97-5 322.82-5.7L322.82-5.7 322.82-28.8Q320.77-29.55 319.97-30.65L319.97-30.65 320.47-34.5 330.77-34.5 340.72-15.1Q341.82-13 342.87-9.5L342.87-9.5 343.22-8.3 343.77-8.5Q343.07-12.85 343.07-15.8L343.07-15.8 343.07-28.75Q341.27-29.45 340.32-30.65L340.32-30.65 340.82-34.5 350.62-34.5 351.12-30.65Q350.17-29.45 348.37-28.75L348.37-28.75 348.37 0 340.52 0 330.47-19.55Q329.37-21.65 328.32-25.2L328.32-25.2 327.97-26.35 327.42-26.15Q328.12-21.8 328.12-18.85Z" opacity="1" transform="matrix(1,0,0,1,0,0)" fill="#e6b17e" class="undefined-text-0" data-fill-palette-color="primary" id="text-0"></path></svg></g></svg></g></svg></g></svg></g><g></g></svg></g></svg></g></svg></g><g mask="url(#7c49b22a-1026-442a-8d2d-e764613ce348)"><g transform="matrix(3.0645055912779124, 0, 0, 3.0645055912779124, 100.6151727564902, 1)"><svg xmlns="http://www.w3.org/2000/svg" xmlns:xlink="http://www.w3.org/1999/xlink" version="1.1" x="0" y="0" viewBox="-250.70000000000002 140.98709328582086 63.39999999999998 80.01290671417914" enable-background="new -269 131 100 100" xml:space="preserve" height="80.01290671417914" width="63.39999999999998" class="icon-none" data-fill-palette-color="accent" id="none"><path d="M-200.1 163.7l-1-0.8c-1.2-1-3.1-0.6-3.8 0.8-0.3 0.7-0.6 7.7-0.6 8.9 0 0.2 0 0.6 0 0.7 0 1-0.9 1.8-1.9 1.6-0.8-0.1-1.4-0.9-1.4-1.7-0.1-12-3.7-20.4-10.5-26.7-4.1-3.8-9-7.2-10.5-4.6-0.4 0.7 0.2 2.2 0.9 4.1 1.4 4.3-2.9 11.2-9 18.1-5.7 6.5-12.8 14.5-12.8 26.4 0 16 15.1 30.5 31.7 30.5 16.6 0 31.7-14.5 31.7-30.5C-187.3 180.4-192.1 170.4-200.1 163.7zM-219 215.2c-7.2 0-13.1-5.9-13.1-13.1 0-3.6 1.4-6.8 3.8-9.2l7.2-8.6c1.1-1.3 3.2-1.3 4.3 0l7.2 8.6c2.3 2.4 3.8 5.6 3.8 9.2C-205.9 209.3-211.8 215.2-219 215.2z" fill="#e6b17e" data-fill-palette-color="accent"></path></svg></g></g><mask id="7c49b22a-1026-442a-8d2d-e764613ce348"><rect width="640" height="400" fill="white"></rect><g transform="matrix(1,0,0,1,39.55199999999999,100.93384906177235)"><svg viewBox="0 0 316.416 45.332301876455276" height="45.332301876455276" width="316.416"><g><svg viewBox="0 0 316.416 45.332301876455276" height="45.332301876455276" width="316.416"><g><svg viewBox="0 0 316.416 45.332301876455276" height="45.332301876455276" width="316.416"><g><svg viewBox="0 0 316.416 45.332301876455276" height="45.332301876455276" width="316.416"><g id="SvgjsG1005"><svg viewBox="0 0 316.416 45.332301876455276" height="45.332301876455276" width="316.416" id="SvgjsSvg1004"><g><svg viewBox="0 0 316.416 45.332301876455276" height="45.332301876455276" width="316.416"><g transform="matrix(1,0,0,1,0,0)"><svg width="316.416" viewBox="-10.9 -38.9 366.02 53.3" height="45.332301876455276" data-palette-color="#e6b17e"><path d="M0.6 5L0.6 5Q2.4 5 3.15 4.08 3.9 3.15 3.9 0.45L3.9 0.45 3.9-28.65Q1.85-29.4 1.15-30.35L1.15-30.35 1.65-34.5 13.35-34.5 13.85-30.35Q13.05-29.4 11.1-28.65L11.1-28.65 11.05 0Q11.05 5.75 8.83 8.08 6.6 10.4 1.63 10.4-3.35 10.4-6.9 7.8L-6.9 7.8Q-6.9 7.5-6.9 6.73-6.9 5.95-6.58 4.17-6.25 2.4-5.65 1.2L-5.65 1.2-1.15 1.2Q-0.45 2.3-0.15 4.95L-0.15 4.95Q0.1 5 0.6 5ZM27.25-34.75L34.1-34.75 44.05-5.9Q46.15-5.15 47-4.15L47-4.15 46.5 0 34.8 0 34.3-4.15Q34.9-4.95 36.7-5.65L36.7-5.65 35.35-9.85 25.35-9.85 24.1-5.8Q25.85-5.1 26.7-4.15L26.7-4.15 26.2 0 14.8 0 14.3-4.15Q15.2-5.3 17.65-6.05L17.65-6.05 27.25-34.75ZM30.65-27.75L29.95-27.75Q29.95-24.7 28.7-20.65L28.7-20.65 26.75-14.45 33.9-14.45 32-20.55Q30.85-24.05 30.7-26.9L30.7-26.9 30.65-27.75ZM80.9-5.85L80.9-18.85Q80.9-20.85 81.25-25.05L81.25-25.05 81.34-26.25 80.84-26.3Q79.69-22.05 78.84-19.55L78.84-19.55 72.19 0 65.55 0 58.55-19.55Q57.59-21.8 56.84-25.15L56.84-25.15 56.55-26.3 56.05-26.25Q56.49-21.8 56.49-18.85L56.49-18.85 56.49-5.7Q58.34-5 59.24-3.85L59.24-3.85 58.74 0 48.95 0 48.45-3.85Q49.34-5 51.2-5.7L51.2-5.7 51.2-28.8Q49.14-29.55 48.34-30.65L48.34-30.65 48.84-34.5 60.24-34.5 67.55-14.35Q68.94-11.05 69.34-8.3L69.34-8.3 69.5-7.45 70.19-7.45Q70.39-10.5 72-14.35L72-14.35 78.94-34.5 90.15-34.5 90.65-30.65Q89.84-29.55 87.8-28.8L87.8-28.8 87.8-5.9Q89.75-5.15 90.55-4.15L90.55-4.15 90.05 0 78.64 0 78.14-4.1Q78.94-5.1 80.9-5.85L80.9-5.85ZM117.49-8.7L117.49 0 94.29 0 93.79-4.15Q94.44-5 96.54-5.8L96.54-5.8 96.54-28.65Q94.49-29.4 93.79-30.35L93.79-30.35 94.29-34.5 117.09-34.5 117.09-25.8 113.39-25.35Q112.24-26.35 111.54-29.05L111.54-29.05 103.74-29.05 103.74-20.45 110.69-20.45Q111.29-21.95 111.94-22.55L111.94-22.55 115.09-22.2 115.09-13.3 111.94-12.9Q111.29-13.4 110.69-15L110.69-15 103.74-15 103.74-5.45 111.94-5.45Q112.59-8.05 113.79-9.15L113.79-9.15 117.49-8.7ZM136.14-29.05L136.14-29.05Q134.44-29.5 132.59-29.5 130.74-29.5 129.62-28.58 128.49-27.65 128.49-25.98 128.49-24.3 129.34-23.35 130.19-22.4 132.69-21.7L132.69-21.7 137.14-20.4Q140.74-19.35 142.87-17.13 144.99-14.9 144.99-10.6L144.99-10.6Q144.99-5.5 141.31-2.55 137.64 0.4 132.19 0.4L132.19 0.4Q129.19 0.4 126.02-0.38 122.84-1.15 120.74-2.55L120.74-2.55Q120.74-2.85 120.74-3.7 120.74-4.55 121.09-6.6 121.44-8.65 122.09-9.95L122.09-9.95 126.84-9.95Q127.64-8.4 127.79-5.8L127.79-5.8Q129.54-5.05 131.87-5.05 134.19-5.05 135.69-6.15 137.19-7.25 137.19-9.3L137.19-9.3Q137.19-10.25 137.04-10.88 136.89-11.5 136.12-12.23 135.34-12.95 133.89-13.4L133.89-13.4 128.74-14.9Q120.89-17.15 120.89-24.9L120.89-24.9Q120.89-29.45 124.19-32.18 127.49-34.9 132.81-34.9 138.14-34.9 143.24-32.5L143.24-32.5Q143.24-32.2 143.24-31.35 143.24-30.5 142.89-28.45 142.54-26.4 141.89-25.1L141.89-25.1 137.14-25.1Q136.29-26.3 136.14-29.05ZM178.38-4.15L177.88 0 166.19 0 165.69-4.15Q166.34-5 168.44-5.8L168.44-5.8 168.44-11.55 160.28-28.5Q157.94-29.3 157.09-30.35L157.09-30.35 157.53-34.25 157.53-34.3 157.59-34.5 169.28-34.5 169.78-30.35Q169.19-29.5 167.48-28.85L167.48-28.85 169.19-25Q170.63-21.7 171.69-18.45L171.69-18.45 172.03-17.45 172.78-17.45Q173.84-21.1 175.53-25L175.53-25 177.13-28.65Q175.13-29.45 174.44-30.35L174.44-30.35 174.94-34.5 186.34-34.5 186.84-30.35Q185.84-29.2 183.53-28.45L183.53-28.45 175.63-11.55 175.63-5.8Q177.63-5 178.38-4.15L178.38-4.15ZM195.93-34.75L202.78-34.75 212.73-5.9Q214.83-5.15 215.68-4.15L215.68-4.15 215.18 0 203.48 0 202.98-4.15Q203.58-4.95 205.38-5.65L205.38-5.65 204.03-9.85 194.03-9.85 192.78-5.8Q194.53-5.1 195.38-4.15L195.38-4.15 194.88 0 183.48 0 182.98-4.15Q183.88-5.3 186.33-6.05L186.33-6.05 195.93-34.75ZM199.33-27.75L198.63-27.75Q198.63-24.7 197.38-20.65L197.38-20.65 195.43-14.45 202.58-14.45 200.68-20.55Q199.53-24.05 199.38-26.9L199.38-26.9 199.33-27.75ZM225.18-18.85L225.18-18.85 225.18-5.7Q227.03-5 227.93-3.85L227.93-3.85 227.43 0 217.63 0 217.13-3.85Q218.03-5 219.88-5.7L219.88-5.7 219.88-28.8Q217.83-29.55 217.03-30.65L217.03-30.65 217.53-34.5 227.83-34.5 237.78-15.1Q238.88-13 239.93-9.5L239.93-9.5 240.28-8.3 240.83-8.5Q240.13-12.85 240.13-15.8L240.13-15.8 240.13-28.75Q238.33-29.45 237.38-30.65L237.38-30.65 237.88-34.5 247.68-34.5 248.18-30.65Q247.23-29.45 245.43-28.75L245.43-28.75 245.43 0 237.58 0 227.53-19.55Q226.43-21.65 225.38-25.2L225.38-25.2 225.03-26.35 224.48-26.15Q225.18-21.8 225.18-18.85ZM285.57-8.7L285.57 0 262.68 0 262.18-4.15Q262.82-5 264.93-5.8L264.93-5.8 264.93-28.65Q262.88-29.4 262.18-30.35L262.18-30.35 262.68-34.5 274.38-34.5 274.88-30.35Q274.07-29.4 272.13-28.65L272.13-28.65 272.13-5.45 280.02-5.45Q280.68-8.05 281.88-9.15L281.88-9.15 285.57-8.7ZM298.87-34.75L305.72-34.75 315.67-5.9Q317.77-5.15 318.62-4.15L318.62-4.15 318.12 0 306.42 0 305.92-4.15Q306.52-4.95 308.32-5.65L308.32-5.65 306.97-9.85 296.97-9.85 295.72-5.8Q297.47-5.1 298.32-4.15L298.32-4.15 297.82 0 286.42 0 285.92-4.15Q286.82-5.3 289.27-6.05L289.27-6.05 298.87-34.75ZM302.27-27.75L301.57-27.75Q301.57-24.7 300.32-20.65L300.32-20.65 298.37-14.45 305.52-14.45 303.62-20.55Q302.47-24.05 302.32-26.9L302.32-26.9 302.27-27.75ZM328.12-18.85L328.12-18.85 328.12-5.7Q329.97-5 330.87-3.85L330.87-3.85 330.37 0 320.57 0 320.07-3.85Q320.97-5 322.82-5.7L322.82-5.7 322.82-28.8Q320.77-29.55 319.97-30.65L319.97-30.65 320.47-34.5 330.77-34.5 340.72-15.1Q341.82-13 342.87-9.5L342.87-9.5 343.22-8.3 343.77-8.5Q343.07-12.85 343.07-15.8L343.07-15.8 343.07-28.75Q341.27-29.45 340.32-30.65L340.32-30.65 340.82-34.5 350.62-34.5 351.12-30.65Q350.17-29.45 348.37-28.75L348.37-28.75 348.37 0 340.52 0 330.47-19.55Q329.37-21.65 328.32-25.2L328.32-25.2 327.97-26.35 327.42-26.15Q328.12-21.8 328.12-18.85Z" opacity="1" transform="matrix(1,0,0,1,0,0)" fill="#e6b17e" class="undefined-text-0" data-fill-palette-color="primary" id="SvgjsPath1003" stroke-width="7" stroke="black" stroke-linejoin="round"></path></svg></g></svg></g></svg></g></svg></g><g></g></svg></g></svg></g></svg></g></mask></svg></g><defs></defs></svg><rect width="395.52" height="247.2" fill="none" stroke="none" visibility="hidden"></rect></g></svg></g></svg>